<svg xmlns="http://www.w3.org/2000/svg" viewBox="0 0 512 512" fill="#94a3b8">
  <path d="M303.33,299.58c-2.21,1.98-5.44,4.9-5.44,9.89c0,5.19,3.43,10.4,9.6,14.6c28.08,19.62,80.71,17.29,82.98,17.22h0.06c21.35,0,42.26-5.76,60.63-16.61c37.61-22,60.75-62.27,60.83-105.84c0.58-42.13-14.09-71.01-21.32-85.28l-1.28-2.56C446.78,48.15,355.31,0.55,255.88,0.55C147.89,0.55,51.5,68.29,14.92,169.9c32.49-39.76,86.76-64.92,144.92-64.92c90.6,0,160.39,60.34,160.39,153.57h-0.13v0.06c0,10.82-5.38,26.64-15.59,39.82l0.19-0.19l-1.38,1.31V299.58z"/>
  <path d="M0.1,248.74c-1.07,40.19,7.18,80.09,24.11,116.56c38.55,82.08,117.64,137.65,207.93,146.11c-8.7-3.31-17.11-7.35-25.13-12.07h-0.32l-3.84-2.4c-19.58-12.16-36.55-28.08-49.94-46.84c-57.82-79.13-40.54-190.15,38.59-247.97c8.29-6.06,17.09-11.38,26.3-15.92l0.32-0.13l0.8-0.38c6.66-3.14,19.85-9.35,37.36-9.12c4.13,0.03,8.23,0.38,12.29,1.06c-9.41-9.01-20.13-16.54-31.79-22.35l-0.32-0.16c-33.45-17.51-70.24-18.12-76.61-18.12C81.73,137.02,5.41,189.33,0.1,248.74zM328.65,502.03l8.48-2.69c-3.27,1.02-6.53,1.92-9.83,2.75L328.65,502.03z"/>
  <path d="M327.21,502.1c3.26-0.82,6.5-1.74,9.7-2.75l2.63-0.8c55.12-19.06,102.12-56.32,133.24-105.64c2.28-3.79,1.06-8.7-2.73-10.99l-7.87-0.22c-6.88,3.59-13.96,6.72-21.22,9.41c-22.97,8.55-47.3,12.89-71.81,12.81c-94.66,0-177.1-65.02-177.1-148.67c0.06-4.32,0.54-8.58,1.47-12.77c-50.83,50.68-57.08,130.87-14.73,188.81l0.1,0.16c10.08,14.12,22.63,26.28,37.07,35.89h0.1l4.61,2.88C248.74,487.82,275.76,504.72,327.21,502.1z"/>
</svg>
