<?xml version="1.0" encoding="UTF-8" standalone="no"?>
<svg
   viewBox="0 0 24 24"
   fill="#ffffff"
   version="1.1"
   id="svg1"
   sodipodi:docname="icon-nostr.svg"
   inkscape:version="1.4.2 (ebf0e940d0, 2025-05-08)"
   xmlns:inkscape="http://www.inkscape.org/namespaces/inkscape"
   xmlns:sodipodi="http://sodipodi.sourceforge.net/DTD/sodipodi-0.dtd"
   xmlns="http://www.w3.org/2000/svg"
   xmlns:svg="http://www.w3.org/2000/svg">
  <defs
     id="defs1" />
  <sodipodi:namedview
     id="namedview1"
     pagecolor="#ffffff"
     bordercolor="#000000"
     borderopacity="0.25"
     inkscape:showpageshadow="2"
     inkscape:pageopacity="0.0"
     inkscape:pagecheckerboard="0"
     inkscape:deskcolor="#d1d1d1"
     inkscape:zoom="9.0833333"
     inkscape:cx="58.678899"
     inkscape:cy="0.88073394"
     inkscape:window-width="2048"
     inkscape:window-height="1083"
     inkscape:window-x="0"
     inkscape:window-y="0"
     inkscape:window-maximized="1"
     inkscape:current-layer="svg1" />
  <path
     d="m 73.321101,-23.431193 c -5.52,0 -10,4.48 -10,10 0,5.5200004 4.48,10.0000004 10,10.0000004 5.52,0 10,-4.48 10,-10.0000004 0,-5.52 -4.48,-10 -10,-10 z m 4.64,6.35 c 0.32,0.13 0.56,0.45 0.56,0.8 v 5.7 c 0,0.48 -0.39,0.8700004 -0.87,0.8700004 h -0.26 c -0.48,0 -0.87,-0.3900004 -0.87,-0.8700004 v -4.35 l -2.33,3.5 c -0.17,0.25 -0.45,0.4 -0.75,0.4 h -0.24 c -0.3,0 -0.58,-0.15 -0.75,-0.4 l -2.33,-3.5 v 4.35 c 0,0.48 -0.39,0.8700004 -0.87,0.8700004 h -0.26 c -0.48,0 -0.87,-0.3900004 -0.87,-0.8700004 v -5.7 c 0,-0.35 0.24,-0.67 0.56,-0.8 0.32,-0.13 0.69,-0.05 0.93,0.2 l 3.71,4.95 3.71,-4.95 c 0.24,-0.25 0.61,-0.33 0.93,-0.2 z"
     id="path1" />
  <path
     d="m 18.024565,10.473746 c 0.384379,2.662699 -2.371817,3.226149 -3.957506,3.176875 -0.101813,-0.0032 -0.19777,0.04639 -0.257912,0.1286 -0.164027,0.224235 -0.426243,0.51421 -0.628672,0.51421 -0.227341,0 -0.431938,0.437211 -0.525242,0.709196 -0.0098,0.02857 0.01828,0.05493 0.04701,0.04558 2.51129,-0.81541 3.49671,-1.095096 3.921239,-1.016479 0.342708,0.06344 0.983706,1.210788 1.261355,1.776533 -0.690172,0.03967 -0.92023,-0.578977 -1.078886,-0.690011 -0.12695,-0.08881 -0.174541,0.317248 -0.182467,0.531389 -0.15073,-0.0793 -0.341124,-0.19033 -0.357009,-0.531389 -0.01585,-0.341027 -0.190394,-0.253772 -0.325239,-0.237919 -0.134876,0.01585 -2.20543,0.682085 -2.514816,0.769308 -0.309385,0.08725 -0.666394,0.206214 -0.959895,0.412428 -0.491886,0.237919 -0.809198,0.07137 -0.896453,-0.3331 -0.06982,-0.323589 0.383441,-1.319202 0.618772,-1.776567 -0.29088,0.108413 -0.894866,0.328344 -0.983707,0.341026 -0.08615,0.01232 -1.179148,0.856109 -1.7636265,1.314575 -0.0341,0.02672 -0.05604,0.0659 -0.06389,0.10851 -0.0935,0.508094 -0.391981,0.650315 -0.909427,0.916576 -0.416374,0.214269 -1.870646,2.449042 -2.618423,3.655463 -0.05171,0.08341 -0.127595,0.147528 -0.20908,0.202236 -0.474982,0.318832 -0.958728,1.130327 -1.15493,1.527454 -0.279246,-0.805802 0.08462,-1.498952 0.30146,-1.744831 -0.0952,-0.08247 -0.314681,-0.03436 -0.412523,0 0.269726,-0.927931 1.213772,-0.927931 1.182038,-0.927931 0.174531,-0.150664 2.221287,-3.07723 2.268876,-3.212042 0.04724,-0.133744 -0.03047,-0.759181 0.998233,-1.102084 0.01634,-0.0054 0.03255,-0.01288 0.04701,-0.0222 0.801432,-0.515115 1.4026385,-1.345471 1.6044525,-1.699147 -1.0699925,-0.0736 -2.2952745,-0.670115 -2.9359165,-1.053297 -0.138112,-0.08259 -0.284571,-0.154482 -0.444489,-0.172568 -0.877168,-0.09929 -1.75545,0.461831 -2.109351,0.781699 -0.14597,-0.203011 0.01851,-0.793086 0.118996,-1.062743 -0.355404,-0.05075 -0.877934,0.4653 -1.094772,0.729652 -0.234824,-0.367977 -0.02909,-1.025733 0.10313,-1.30859 -0.469643,0.01268 -0.788027,0.227341 -0.888514,0.3331 0.388724,-2.8948263 3.362093,-2.0529199 3.395384,-2.0144855 -0.158656,-0.1649655 -0.145425,-0.3806903 -0.118992,-0.4679457 1.80083,0.047591 2.641735,-0.2537721 3.173252,-0.5630935 4.1887285,-2.3396268 5.9935075,-0.9041196 6.6599025,-0.5432607 0.666362,0.3608588 1.87618,0.5075763 2.713136,0.1744759 0.999559,-0.4520591 0.849088,-1.6173276 0.646531,-2.0620436 -0.2221,-0.4877772 -1.475561,-1.1619272 -1.919824,-2.0144942 -0.44423,-0.852569 -0.05713,-1.8893511 0.457528,-2.0338571 0.490333,-0.137685 0.840514,0.02249 1.109266,0.265238 0.1792,0.161835 0.682279,0.277585 0.892505,0.352931 0.210226,0.07534 0.559276,0.17448 0.539445,0.233962 -0.01983,0.05948 -0.356394,0.05154 -0.408547,0.05154 -0.107119,0 -0.234037,0.01586 -0.107119,0.07535 0.148854,0.06036 0.373541,0.1480931 0.481113,0.2058421 0.01397,0.0075 0.0111,0.02706 -0.0042,0.03118 -0.730032,0.196466 -1.381868,-0.208932 -1.86518,0.25866 -0.491854,0.475862 0.555328,0.840687 1.094805,1.411719 0.539443,0.57104 1.094773,1.2530926 0.65051,2.8075934 -0.343939,1.2034122 -1.7854,2.2265886 -2.529958,2.6268199 -0.0428,0.02304 -0.06629,0.07221 -0.05934,0.12035 z"
     fill="#ffffff"
     id="path1-5"
     style="stroke-width:0.0323524" />
</svg>
